<svg xmlns="http://www.w3.org/2000/svg" xmlns:xlink="http://www.w3.org/1999/xlink" width="500" zoomAndPan="magnify" viewBox="0 0 375 374.999991" height="500" preserveAspectRatio="xMidYMid meet" version="1.0"><defs><clipPath id="cd9b2d28b5"><path d="M 31.132812 92.066406 L 181.132812 92.066406 L 181.132812 242.066406 L 31.132812 242.066406 Z M 31.132812 92.066406 " clip-rule="nonzero"/></clipPath><clipPath id="503223d89f"><path d="M 136.789062 203.078125 L 141.519531 203.078125 L 141.519531 221.839844 L 136.789062 221.839844 Z M 136.789062 203.078125 " clip-rule="nonzero"/></clipPath><clipPath id="6525d69911"><path d="M 136.789062 119.695312 L 141.519531 119.695312 L 141.519531 189.269531 L 136.789062 189.269531 Z M 136.789062 119.695312 " clip-rule="nonzero"/></clipPath><clipPath id="4320055a81"><path d="M 85 101.105469 L 96 101.105469 L 96 106 L 85 106 Z M 85 101.105469 " clip-rule="nonzero"/></clipPath><clipPath id="545f71e5e3"><path d="M 62.78125 142 L 77 142 L 77 157 L 62.78125 157 Z M 62.78125 142 " clip-rule="nonzero"/></clipPath><clipPath id="edccea9b86"><path d="M 81 221 L 137 221 L 137 226.355469 L 81 226.355469 Z M 81 221 " clip-rule="nonzero"/></clipPath></defs><g clip-path="url(#cd9b2d28b5)"><path fill="#400ea2" d="M 181.132812 167.066406 C 181.132812 168.292969 181.101562 169.519531 181.042969 170.746094 C 180.984375 171.972656 180.890625 173.195312 180.773438 174.417969 C 180.652344 175.636719 180.5 176.855469 180.320312 178.070312 C 180.140625 179.285156 179.929688 180.492188 179.691406 181.695312 C 179.453125 182.902344 179.183594 184.097656 178.886719 185.289062 C 178.585938 186.480469 178.261719 187.660156 177.902344 188.835938 C 177.546875 190.011719 177.164062 191.175781 176.75 192.332031 C 176.335938 193.488281 175.894531 194.632812 175.425781 195.765625 C 174.953125 196.898438 174.457031 198.023438 173.933594 199.132812 C 173.40625 200.242188 172.855469 201.335938 172.277344 202.417969 C 171.699219 203.503906 171.09375 204.570312 170.464844 205.621094 C 169.832031 206.675781 169.175781 207.710938 168.492188 208.734375 C 167.8125 209.753906 167.105469 210.757812 166.375 211.742188 C 165.644531 212.726562 164.886719 213.695312 164.109375 214.644531 C 163.332031 215.59375 162.527344 216.523438 161.703125 217.433594 C 160.878906 218.339844 160.035156 219.230469 159.167969 220.097656 C 158.296875 220.964844 157.410156 221.8125 156.5 222.636719 C 155.589844 223.460938 154.660156 224.261719 153.710938 225.039062 C 152.765625 225.820312 151.796875 226.574219 150.8125 227.304688 C 149.824219 228.035156 148.820312 228.742188 147.800781 229.425781 C 146.78125 230.105469 145.742188 230.761719 144.691406 231.394531 C 143.636719 232.027344 142.570312 232.628906 141.488281 233.207031 C 140.40625 233.789062 139.308594 234.339844 138.199219 234.863281 C 137.089844 235.390625 135.96875 235.886719 134.835938 236.355469 C 133.699219 236.824219 132.554688 237.265625 131.398438 237.679688 C 130.246094 238.09375 129.078125 238.480469 127.90625 238.835938 C 126.730469 239.191406 125.546875 239.519531 124.355469 239.816406 C 123.167969 240.117188 121.96875 240.382812 120.765625 240.625 C 119.5625 240.863281 118.351562 241.074219 117.136719 241.253906 C 115.925781 241.433594 114.707031 241.582031 113.484375 241.703125 C 112.261719 241.824219 111.039062 241.914062 109.8125 241.972656 C 108.585938 242.035156 107.359375 242.066406 106.132812 242.066406 C 104.90625 242.066406 103.679688 242.035156 102.453125 241.972656 C 101.226562 241.914062 100.003906 241.824219 98.78125 241.703125 C 97.558594 241.582031 96.34375 241.433594 95.128906 241.253906 C 93.914062 241.074219 92.707031 240.863281 91.5 240.625 C 90.296875 240.382812 89.101562 240.117188 87.910156 239.816406 C 86.71875 239.519531 85.535156 239.191406 84.363281 238.835938 C 83.1875 238.480469 82.023438 238.09375 80.867188 237.679688 C 79.710938 237.265625 78.566406 236.824219 77.433594 236.355469 C 76.296875 235.886719 75.175781 235.390625 74.066406 234.863281 C 72.957031 234.339844 71.859375 233.789062 70.777344 233.207031 C 69.695312 232.628906 68.628906 232.027344 67.574219 231.394531 C 66.523438 230.761719 65.484375 230.105469 64.464844 229.425781 C 63.445312 228.742188 62.441406 228.035156 61.457031 227.304688 C 60.46875 226.574219 59.503906 225.820312 58.554688 225.039062 C 57.605469 224.261719 56.675781 223.460938 55.765625 222.636719 C 54.855469 221.8125 53.96875 220.964844 53.101562 220.097656 C 52.230469 219.230469 51.386719 218.339844 50.5625 217.433594 C 49.738281 216.523438 48.9375 215.59375 48.15625 214.644531 C 47.378906 213.695312 46.625 212.726562 45.894531 211.742188 C 45.160156 210.757812 44.453125 209.753906 43.773438 208.734375 C 43.089844 207.710938 42.433594 206.675781 41.804688 205.621094 C 41.171875 204.570312 40.566406 203.503906 39.988281 202.417969 C 39.410156 201.335938 38.859375 200.242188 38.335938 199.132812 C 37.808594 198.023438 37.3125 196.898438 36.84375 195.765625 C 36.371094 194.632812 35.929688 193.488281 35.515625 192.332031 C 35.105469 191.175781 34.71875 190.011719 34.363281 188.835938 C 34.007812 187.660156 33.679688 186.480469 33.382812 185.289062 C 33.082031 184.097656 32.8125 182.902344 32.574219 181.695312 C 32.335938 180.492188 32.125 179.285156 31.945312 178.070312 C 31.765625 176.855469 31.613281 175.636719 31.496094 174.417969 C 31.375 173.195312 31.285156 171.972656 31.222656 170.746094 C 31.164062 169.519531 31.132812 168.292969 31.132812 167.066406 C 31.132812 165.835938 31.164062 164.609375 31.222656 163.386719 C 31.285156 162.160156 31.375 160.933594 31.496094 159.714844 C 31.613281 158.492188 31.765625 157.273438 31.945312 156.058594 C 32.125 154.847656 32.335938 153.636719 32.574219 152.433594 C 32.8125 151.230469 33.082031 150.03125 33.382812 148.839844 C 33.679688 147.652344 34.007812 146.46875 34.363281 145.292969 C 34.71875 144.117188 35.105469 142.953125 35.515625 141.796875 C 35.929688 140.640625 36.371094 139.496094 36.84375 138.363281 C 37.3125 137.230469 37.808594 136.109375 38.335938 135 C 38.859375 133.890625 39.410156 132.792969 39.988281 131.710938 C 40.566406 130.628906 41.171875 129.558594 41.804688 128.507812 C 42.433594 127.453125 43.089844 126.417969 43.773438 125.398438 C 44.453125 124.375 45.160156 123.375 45.894531 122.386719 C 46.625 121.402344 47.378906 120.433594 48.15625 119.484375 C 48.9375 118.535156 49.738281 117.609375 50.5625 116.699219 C 51.386719 115.789062 52.230469 114.898438 53.101562 114.03125 C 53.96875 113.164062 54.855469 112.316406 55.765625 111.492188 C 56.675781 110.667969 57.605469 109.867188 58.554688 109.089844 C 59.503906 108.308594 60.46875 107.554688 61.457031 106.824219 C 62.441406 106.09375 63.445312 105.386719 64.464844 104.703125 C 65.484375 104.023438 66.523438 103.367188 67.574219 102.734375 C 68.628906 102.105469 69.695312 101.5 70.777344 100.921875 C 71.859375 100.34375 72.957031 99.789062 74.066406 99.265625 C 75.175781 98.742188 76.296875 98.242188 77.433594 97.773438 C 78.566406 97.304688 79.710938 96.863281 80.867188 96.449219 C 82.023438 96.035156 83.1875 95.652344 84.363281 95.292969 C 85.535156 94.9375 86.71875 94.609375 87.910156 94.3125 C 89.101562 94.015625 90.296875 93.746094 91.5 93.507812 C 92.707031 93.265625 93.914062 93.058594 95.128906 92.875 C 96.34375 92.695312 97.558594 92.546875 98.78125 92.425781 C 100.003906 92.304688 101.226562 92.214844 102.453125 92.15625 C 103.679688 92.09375 104.90625 92.066406 106.132812 92.066406 C 107.359375 92.066406 108.585938 92.09375 109.8125 92.15625 C 111.039062 92.214844 112.261719 92.304688 113.484375 92.425781 C 114.707031 92.546875 115.925781 92.695312 117.136719 92.875 C 118.351562 93.058594 119.5625 93.265625 120.765625 93.507812 C 121.96875 93.746094 123.167969 94.015625 124.355469 94.3125 C 125.546875 94.609375 126.730469 94.9375 127.90625 95.292969 C 129.078125 95.652344 130.246094 96.035156 131.398438 96.449219 C 132.554688 96.863281 133.699219 97.304688 134.835938 97.773438 C 135.96875 98.242188 137.089844 98.742188 138.199219 99.265625 C 139.308594 99.789062 140.40625 100.34375 141.488281 100.921875 C 142.570312 101.5 143.636719 102.105469 144.691406 102.734375 C 145.742188 103.367188 146.78125 104.023438 147.800781 104.703125 C 148.820312 105.386719 149.824219 106.09375 150.8125 106.824219 C 151.796875 107.554688 152.765625 108.308594 153.710938 109.089844 C 154.660156 109.867188 155.589844 110.667969 156.5 111.492188 C 157.410156 112.316406 158.296875 113.164062 159.167969 114.03125 C 160.035156 114.898438 160.878906 115.789062 161.703125 116.699219 C 162.527344 117.609375 163.332031 118.535156 164.109375 119.484375 C 164.886719 120.433594 165.644531 121.402344 166.375 122.386719 C 167.105469 123.375 167.8125 124.375 168.492188 125.398438 C 169.175781 126.417969 169.832031 127.453125 170.464844 128.507812 C 171.09375 129.558594 171.699219 130.628906 172.277344 131.710938 C 172.855469 132.792969 173.40625 133.890625 173.933594 135 C 174.457031 136.109375 174.953125 137.230469 175.425781 138.363281 C 175.894531 139.496094 176.335938 140.640625 176.75 141.796875 C 177.164062 142.953125 177.546875 144.117188 177.902344 145.292969 C 178.261719 146.46875 178.585938 147.652344 178.886719 148.839844 C 179.183594 150.03125 179.453125 151.230469 179.691406 152.433594 C 179.929688 153.636719 180.140625 154.847656 180.320312 156.058594 C 180.5 157.273438 180.652344 158.492188 180.773438 159.714844 C 180.890625 160.933594 180.984375 162.160156 181.042969 163.386719 C 181.101562 164.609375 181.132812 165.835938 181.132812 167.066406 Z M 181.132812 167.066406 " fill-opacity="1" fill-rule="nonzero"/></g><g clip-path="url(#503223d89f)"><path fill="#F67980" d="M 136.894531 203.132812 L 136.894531 221.640625 L 141.519531 221.640625 L 141.519531 203.132812 L 136.894531 203.132812 " fill-opacity="1" fill-rule="nonzero"/></g><g clip-path="url(#6525d69911)"><path fill="#F67980" d="M 136.894531 119.769531 L 136.894531 189.179688 L 141.519531 189.179688 L 141.519531 119.769531 L 136.894531 119.769531 " fill-opacity="1" fill-rule="nonzero"/></g><path fill="#F67980" d="M 132.265625 189.179688 L 132.265625 198.507812 L 85.917969 198.507812 L 85.917969 184.554688 L 81.289062 184.554688 L 81.289062 203.132812 L 136.894531 203.132812 L 136.894531 189.179688 L 132.265625 189.179688 " fill-opacity="1" fill-rule="nonzero"/><path fill="#F67980" d="M 127.640625 115.074219 L 127.640625 119.769531 L 136.894531 119.769531 L 136.894531 115.074219 L 127.640625 115.074219 " fill-opacity="1" fill-rule="nonzero"/><path fill="#F67980" d="M 127.640625 212.386719 L 132.265625 212.386719 L 132.265625 207.761719 L 127.640625 207.761719 L 127.640625 212.386719 " fill-opacity="1" fill-rule="nonzero"/><path fill="#F67980" d="M 122.976562 119.769531 L 122.976562 138.28125 L 99.835938 138.28125 L 99.835938 105.820312 L 95.207031 105.820312 L 95.207031 156.789062 L 99.835938 156.789062 L 99.835938 142.910156 L 109.09375 142.910156 L 109.09375 156.789062 L 113.722656 156.789062 L 113.722656 142.910156 L 122.976562 142.910156 L 122.976562 156.789062 L 127.640625 156.789062 L 127.640625 119.769531 L 122.976562 119.769531 " fill-opacity="1" fill-rule="nonzero"/><g clip-path="url(#4320055a81)"><path fill="#F67980" d="M 95.207031 105.820312 L 95.207031 101.195312 L 85.917969 101.195312 L 85.917969 105.820312 L 95.207031 105.820312 " fill-opacity="1" fill-rule="nonzero"/></g><path fill="#F67980" d="M 76.664062 203.132812 L 76.664062 221.640625 L 81.289062 221.640625 L 81.289062 203.132812 L 76.664062 203.132812 " fill-opacity="1" fill-rule="nonzero"/><path fill="#F67980" d="M 76.664062 175.300781 L 76.664062 184.554688 L 81.289062 184.554688 L 81.289062 175.300781 L 76.664062 175.300781 " fill-opacity="1" fill-rule="nonzero"/><path fill="#F67980" d="M 81.289062 105.820312 L 81.289062 147.535156 L 76.664062 147.535156 L 76.664062 152.164062 L 81.289062 152.164062 L 81.289062 166.046875 L 85.917969 166.046875 L 85.917969 105.820312 L 81.289062 105.820312 " fill-opacity="1" fill-rule="nonzero"/><path fill="#F67980" d="M 72.035156 166.046875 L 72.035156 175.300781 L 76.664062 175.300781 L 76.664062 166.046875 L 72.035156 166.046875 " fill-opacity="1" fill-rule="nonzero"/><path fill="#F67980" d="M 67.410156 156.789062 L 67.410156 166.046875 L 72.035156 166.046875 L 72.035156 156.789062 L 67.410156 156.789062 " fill-opacity="1" fill-rule="nonzero"/><g clip-path="url(#545f71e5e3)"><path fill="#F67980" d="M 62.78125 142.910156 L 62.78125 156.789062 L 67.410156 156.789062 L 67.410156 147.535156 L 76.664062 147.535156 L 76.664062 142.910156 L 62.78125 142.910156 " fill-opacity="1" fill-rule="nonzero"/></g><g clip-path="url(#edccea9b86)"><path fill="#F67980" d="M 81.289062 221.640625 L 81.289062 226.269531 L 136.894531 226.269531 L 136.894531 221.640625 L 81.289062 221.640625 " fill-opacity="1" fill-rule="nonzero"/></g></svg>